<?xml version="1.0" encoding="iso-8859-1"?>
<!-- Generator: Adobe Illustrator 19.0.0, SVG Export Plug-In . SVG Version: 6.00 Build 0)  -->
<svg version="1.1" id="Capa_1" xmlns="http://www.w3.org/2000/svg" xmlns:xlink="http://www.w3.org/1999/xlink" x="0px" y="0px"
	 viewBox="0 0 412.3 412.3" style="enable-background:new 0 0 412.3 412.3;" xml:space="preserve">
<g>
	<rect x="302.3" y="209.113" style="fill:#FEDB41;" width="63.6" height="183.8"/>
	<rect x="174.5" y="241.013" style="fill:#FEDB41;" width="63.6" height="151.8"/>
	<rect x="46.8" y="283.613" style="fill:#FEDB41;" width="63.6" height="109.2"/>
</g>
<path style="fill:#46C43D;" d="M401.7,25.113c-1.7-2-4.2-3.3-6.9-3.4l-101.7-7.3c-5.5-0.4-10.3,3.7-10.7,9.2s3.7,10.3,9.2,10.7
	c0,0,0,0,0.1,0l75.8,5.4l-136.8,106.4l-102.3-80.5c-3.9-3.1-9.5-2.8-13.1,0.6l-104.2,99.9c-4,3.8-4.2,10.1-0.3,14.1
	s10.1,4.2,14.1,0.3c0,0,0,0,0.1-0.1l97.9-93.9l101.6,80c3.6,2.8,8.7,2.9,12.3,0l145.7-113.2l-5.5,71.8c-0.4,5.5,3.7,10.3,9.2,10.7
	l0,0c0.3,0,0.5,0,0.8,0c5.2,0,9.6-4,10-9.2l7.3-94.5C404.3,29.713,403.4,27.113,401.7,25.113z"/>
<path style="fill:#00ACEA;" d="M402.3,397.913H10c-5.5,0-10-4.5-10-10s4.5-10,10-10h392.3c5.5,0,10,4.5,10,10
	S407.9,397.913,402.3,397.913z"/>
<g>
</g>
<g>
</g>
<g>
</g>
<g>
</g>
<g>
</g>
<g>
</g>
<g>
</g>
<g>
</g>
<g>
</g>
<g>
</g>
<g>
</g>
<g>
</g>
<g>
</g>
<g>
</g>
<g>
</g>
</svg>
